<svg xmlns="http://www.w3.org/2000/svg" width="14.188" height="18.185" viewBox="0 0 14.188 18.185">
  <defs>
    <style>
      .cls-1 {
        stroke: currentColor;
        stroke-width: 0.5px;
      }
    </style>
  </defs>
  <path id="路径_1523" data-name="路径 1523" class="cls-1" d="M152.682,78.771h11.565a1.042,1.042,0,0,0,1.061-1.022V76.625a1.056,1.056,0,0,0-.275-.718L163.7,74.128V70.806a5.878,5.878,0,0,0-1.448-3.96A4.925,4.925,0,0,0,160.73,65.7a.678.678,0,0,1-.351-.375,2.032,2.032,0,0,0-1.913-1.35h0a2.032,2.032,0,0,0-1.913,1.35.678.678,0,0,1-.351.375,4.925,4.925,0,0,0-1.524,1.146,5.878,5.878,0,0,0-1.448,3.96v3.323L151.9,75.907a1.055,1.055,0,0,0-.275.718v1.124a1.042,1.042,0,0,0,1.061,1.022Zm.012-2.146,1.333-1.777a1.048,1.048,0,0,0,.275-.719V70.806a4.8,4.8,0,0,1,1.167-3.23,3.919,3.919,0,0,1,1.306-.958q.087-.039.177-.074a.936.936,0,0,0,.6-.688.971.971,0,0,1,.038-.149.925.925,0,0,1,.662-.6c.009,0,.018,0,.027,0v0a.879.879,0,0,1,.37,0v0c.009,0,.018,0,.027,0a.925.925,0,0,1,.662.6.967.967,0,0,1,.038.149.936.936,0,0,0,.6.688q.089.035.177.074a3.918,3.918,0,0,1,1.306.958,4.8,4.8,0,0,1,1.167,3.23v3.323a1.049,1.049,0,0,0,.275.719l1.333,1.777.011,1.113-5.781.006-5.781-.006.011-1.113Zm6.811,3.654a1.407,1.407,0,0,1-.8.331c-.051,0-.1,0-.153,0s-.1,0-.153,0a1.408,1.408,0,0,1-.8-.331,1.354,1.354,0,0,1-.344-.471h-1.107a2.371,2.371,0,0,0,.738,1.225,2.491,2.491,0,0,0,1.481.608h0c.062,0,.122.017.184.017h0c.062,0,.123-.012.184-.017h0a2.491,2.491,0,0,0,1.481-.608,2.372,2.372,0,0,0,.738-1.225h-1.107A1.355,1.355,0,0,1,159.505,80.279Z" transform="translate(-151.371 -63.725)"/>
</svg>
